<?xml version="1.0" encoding="UTF-8" standalone="no"?>
<!-- Generator: Adobe Illustrator 18.1.1, SVG Export Plug-In . SVG Version: 6.00 Build 0)  -->

<svg
   version="1.1"
   id="Layer_1"
   x="0px"
   y="0px"
   viewBox="0 0 500 500"
   enable-background="new 0 0 500 500"
   xml:space="preserve"
   sodipodi:docname="Close.svg"
   inkscape:version="1.1.1 (3bf5ae0d25, 2021-09-20)"
   xmlns:inkscape="http://www.inkscape.org/namespaces/inkscape"
   xmlns:sodipodi="http://sodipodi.sourceforge.net/DTD/sodipodi-0.dtd"
   xmlns="http://www.w3.org/2000/svg"
   xmlns:svg="http://www.w3.org/2000/svg"><defs
   id="defs7" /><sodipodi:namedview
   id="namedview5"
   pagecolor="#ffffff"
   bordercolor="#666666"
   borderopacity="1.0"
   inkscape:pageshadow="2"
   inkscape:pageopacity="0.0"
   inkscape:pagecheckerboard="0"
   showgrid="false"
   inkscape:zoom="1.438"
   inkscape:cx="250"
   inkscape:cy="73.365786"
   inkscape:window-width="1920"
   inkscape:window-height="1009"
   inkscape:window-x="1912"
   inkscape:window-y="-8"
   inkscape:window-maximized="1"
   inkscape:current-layer="Layer_1" />
<path
   d="M 426.16682,16.588833 251.39082,192.61908 76.614817,17.106569 c -15.982467,-16.0498166 -42.276201,-16.0498166 -58.25867,0 -15.982466,16.049816 -15.982466,42.454355 0,58.504173 L 193.13215,251.12326 18.356147,426.63576 c -15.982466,16.04982 -15.982466,42.45436 0,58.50417 15.982469,16.04982 42.276203,16.04982 58.25867,0 l 174.776003,-175.51251 174.776,175.51251 c 15.98247,16.04982 42.2762,16.04982 58.25867,0 15.98247,-16.04981 15.98247,-42.45435 0,-58.50417 l -174.776,-175.5125 174.776,-175.512518 c 15.98247,-16.049818 15.98247,-42.454357 0,-58.504173 C 468.44302,0.53901652 442.66485,0.53901652 426.16682,16.588833 Z"
   id="path2"
   style="stroke-width:5.16649" />
</svg>
