<?xml version="1.0" encoding="UTF-8" standalone="no"?>
<!-- Generator: Adobe Illustrator 18.1.1, SVG Export Plug-In . SVG Version: 6.00 Build 0)  -->

<svg
   version="1.1"
   id="Layer_1"
   x="0px"
   y="0px"
   viewBox="0 0 500 500"
   enable-background="new 0 0 500 500"
   xml:space="preserve"
   sodipodi:docname="File.svg"
   inkscape:version="1.1.1 (3bf5ae0d25, 2021-09-20)"
   xmlns:inkscape="http://www.inkscape.org/namespaces/inkscape"
   xmlns:sodipodi="http://sodipodi.sourceforge.net/DTD/sodipodi-0.dtd"
   xmlns="http://www.w3.org/2000/svg"
   xmlns:svg="http://www.w3.org/2000/svg"><defs
   id="defs13" /><sodipodi:namedview
   id="namedview11"
   pagecolor="#ffffff"
   bordercolor="#666666"
   borderopacity="1.0"
   inkscape:pageshadow="2"
   inkscape:pageopacity="0.0"
   inkscape:pagecheckerboard="0"
   showgrid="false"
   inkscape:zoom="1.438"
   inkscape:cx="250"
   inkscape:cy="250"
   inkscape:window-width="1920"
   inkscape:window-height="1009"
   inkscape:window-x="1912"
   inkscape:window-y="-8"
   inkscape:window-maximized="1"
   inkscape:current-layer="Layer_1" />
<g
   id="g8"
   transform="matrix(3.841403,0,0,3.0775383,-708.61222,-365.23035)">
	<path
   d="m 274,200 h -48 c -4.4,0 -8,3.6 -8,8 0,4.4 3.6,8 8,8 h 48 c 4.4,0 8,-3.6 8,-8 0,-4.4 -3.6,-8 -8,-8 z"
   id="path2" />
	<path
   d="m 274,232 h -48 c -4.4,0 -8,3.6 -8,8 0,4.4 3.6,8 8,8 h 48 c 4.4,0 8,-3.6 8,-8 0,-4.4 -3.6,-8 -8,-8 z"
   id="path4" />
	<path
   d="m 313.9,175.5 c 0,-0.3 0,-0.6 -0.1,-0.9 0,-0.2 -0.1,-0.5 -0.2,-0.7 -0.1,-0.3 -0.1,-0.5 -0.2,-0.8 -0.1,-0.2 -0.2,-0.5 -0.3,-0.7 -0.1,-0.2 -0.2,-0.5 -0.4,-0.7 -0.2,-0.2 -0.3,-0.5 -0.5,-0.7 -0.1,-0.1 -0.2,-0.3 -0.3,-0.4 l -44,-48 c 0,0 -0.1,-0.1 -0.1,-0.1 -0.2,-0.2 -0.4,-0.4 -0.6,-0.6 -0.2,-0.2 -0.4,-0.3 -0.6,-0.5 -0.2,-0.2 -0.5,-0.3 -0.7,-0.4 -0.2,-0.1 -0.4,-0.3 -0.7,-0.4 -0.2,-0.1 -0.5,-0.2 -0.7,-0.3 -0.2,-0.1 -0.5,-0.2 -0.7,-0.2 -0.2,-0.1 -0.5,-0.1 -0.7,-0.1 -0.3,0 -0.6,-0.1 -0.9,-0.1 -0.1,0 -0.1,0 -0.2,0 h -52 c -13.2,0 -24,10.8 -24,24 v 112 c 0,13.2 10.8,24 24,24 h 80 c 13.2,0 24,-10.8 24,-24 v -80 c 0,-0.1 0,-0.2 -0.1,-0.4 z M 266,144.2 287.8,168 H 274 c -4.4,0 -8,-3.6 -8,-8 z M 290,264 h -80 c -4.4,0 -8,-3.6 -8,-8 V 144 c 0,-4.4 3.6,-8 8,-8 h 40 v 24 c 0,13.2 10.8,24 24,24 h 24 v 72 c 0,4.4 -3.6,8 -8,8 z"
   id="path6" />
</g>
</svg>
