<?xml version="1.0" encoding="UTF-8" standalone="no"?>
<!-- Generator: Adobe Illustrator 18.1.1, SVG Export Plug-In . SVG Version: 6.00 Build 0)  -->

<svg
   version="1.1"
   id="Layer_1"
   x="0px"
   y="0px"
   viewBox="0 0 500 500"
   enable-background="new 0 0 500 500"
   xml:space="preserve"
   sodipodi:docname="Link.svg"
   inkscape:version="1.1.1 (3bf5ae0d25, 2021-09-20)"
   xmlns:inkscape="http://www.inkscape.org/namespaces/inkscape"
   xmlns:sodipodi="http://sodipodi.sourceforge.net/DTD/sodipodi-0.dtd"
   xmlns="http://www.w3.org/2000/svg"
   xmlns:svg="http://www.w3.org/2000/svg"><defs
   id="defs7" /><sodipodi:namedview
   id="namedview5"
   pagecolor="#ffffff"
   bordercolor="#666666"
   borderopacity="1.0"
   inkscape:pageshadow="2"
   inkscape:pageopacity="0.0"
   inkscape:pagecheckerboard="0"
   showgrid="false"
   inkscape:zoom="1.438"
   inkscape:cx="250"
   inkscape:cy="250"
   inkscape:window-width="1920"
   inkscape:window-height="1009"
   inkscape:window-x="1912"
   inkscape:window-y="-8"
   inkscape:window-maximized="1"
   inkscape:current-layer="Layer_1" />
<path
   d="M 477.35974,88.140665 411.91387,22.405201 C 398.88261,9.373942 381.5076,2.1343533 362.68467,2.1343533 c -18.53336,0 -36.19795,7.2395887 -49.22921,20.2708477 L 208.62622,127.23445 c -13.03126,13.03125 -20.27084,30.40627 -20.27084,49.2292 0,4.63333 0.57917,9.26667 1.44792,13.90001 -4.63334,-0.86875 -9.26668,-1.44792 -13.90001,-1.44792 -18.53335,0 -35.90837,7.23959 -49.2292,20.27084 L 21.84484,314.01582 c -13.0312598,13.03126 -20.2708483,30.40627 -20.2708483,49.2292 0,18.82294 7.2395885,35.90836 20.2708483,49.22921 l 65.445881,65.44588 c 13.031259,13.03126 30.406269,20.27085 49.229199,20.27085 18.82293,0 36.19795,-7.23959 49.22921,-20.27085 L 290.57837,373.09086 c 17.08542,-17.08542 23.45626,-40.83127 18.82292,-62.83963 4.63334,0.86876 9.26668,1.44792 13.90001,1.44792 18.53335,0 35.90836,-7.23959 49.2292,-20.27084 L 477.35974,186.59907 c 13.03126,-13.03126 20.27086,-30.40627 20.27086,-49.2292 0,-18.82293 -6.95001,-36.19795 -20.27086,-49.229205 z M 257.85542,340.36792 153.02618,445.19717 c -8.6875,8.6875 -24.03543,8.6875 -32.72294,0 L 54.857364,379.75128 c -4.343753,-4.34375 -6.660421,-10.13542 -6.660421,-16.50626 0,-6.37083 2.316668,-12.16251 6.660421,-16.50626 L 159.68661,241.90952 c 4.34375,-4.34375 10.13542,-6.66041 16.50626,-6.66041 6.37083,0 12.16251,2.31666 16.50626,6.66041 l 16.50626,16.50626 -57.33754,57.33754 c -8.97708,8.97709 -8.97708,23.74586 0,32.72294 4.63334,4.63334 10.42501,6.66042 16.50626,6.66042 6.08126,0 11.87293,-2.31666 16.50627,-6.66042 l 57.33753,-57.33754 16.50627,16.50627 c 8.10834,8.97708 8.10834,23.74585 -0.86876,32.72293 z M 444.63681,153.58655 339.80756,258.41578 c -8.68751,8.68752 -24.03543,8.68752 -32.72293,0 l -16.50626,-16.50626 57.33754,-57.33754 c 8.97708,-8.97708 8.97708,-23.74585 0,-32.72293 -8.9771,-8.97709 -23.74586,-8.97709 -32.72295,0 l -57.33754,57.33753 -16.50626,-16.50626 c -4.34375,-4.34375 -6.66041,-10.13542 -6.66041,-16.50626 0,-6.37083 2.31666,-12.16251 6.66041,-16.50626 L 346.17841,54.838558 c 4.34375,-4.343753 10.13542,-6.660422 16.50626,-6.660422 6.08125,0 12.1625,2.316669 16.50626,6.660422 l 65.44588,65.445872 c 4.34376,4.34377 6.66042,10.13543 6.66042,16.50628 0.28959,6.66041 -2.31666,12.45209 -6.66042,16.79584 z"
   id="path2"
   style="stroke-width:2.89583" />
</svg>
