<?xml version="1.0" encoding="UTF-8" standalone="no"?>
<!-- Generator: Adobe Illustrator 18.1.1, SVG Export Plug-In . SVG Version: 6.00 Build 0)  -->

<svg
   version="1.1"
   id="Layer_1"
   x="0px"
   y="0px"
   viewBox="0 0 500 500"
   enable-background="new 0 0 500 500"
   xml:space="preserve"
   sodipodi:docname="Menu.svg"
   inkscape:version="1.1.1 (3bf5ae0d25, 2021-09-20)"
   xmlns:inkscape="http://www.inkscape.org/namespaces/inkscape"
   xmlns:sodipodi="http://sodipodi.sourceforge.net/DTD/sodipodi-0.dtd"
   xmlns="http://www.w3.org/2000/svg"
   xmlns:svg="http://www.w3.org/2000/svg"><defs
   id="defs19" /><sodipodi:namedview
   id="namedview17"
   pagecolor="#ffffff"
   bordercolor="#666666"
   borderopacity="1.0"
   inkscape:pageshadow="2"
   inkscape:pageopacity="0.0"
   inkscape:pagecheckerboard="0"
   showgrid="false"
   inkscape:zoom="1.438"
   inkscape:cx="250"
   inkscape:cy="250"
   inkscape:window-width="1920"
   inkscape:window-height="1009"
   inkscape:window-x="1912"
   inkscape:window-y="-8"
   inkscape:window-maximized="1"
   inkscape:current-layer="Layer_1" />
<g
   id="g14"
   transform="matrix(3.1036161,0,0,4.4335883,-524.51321,-636.30041)">
	<g
   id="g4">
		<path
   d="M 322,208 H 178 c -4.4,0 -8,-3.6 -8,-8 0,-4.4 3.6,-8 8,-8 h 144 c 4.4,0 8,3.6 8,8 0,4.4 -3.6,8 -8,8 z"
   id="path2" />
	</g>
	<g
   id="g8">
		<path
   d="M 322,160 H 178 c -4.4,0 -8,-3.6 -8,-8 0,-4.4 3.6,-8 8,-8 h 144 c 4.4,0 8,3.6 8,8 0,4.4 -3.6,8 -8,8 z"
   id="path6" />
	</g>
	<g
   id="g12">
		<path
   d="M 322,256 H 178 c -4.4,0 -8,-3.6 -8,-8 0,-4.4 3.6,-8 8,-8 h 144 c 4.4,0 8,3.6 8,8 0,4.4 -3.6,8 -8,8 z"
   id="path10" />
	</g>
</g>
</svg>
